<?xml version="1.0" encoding="utf-8"?>
<!-- Generator: Adobe Illustrator 19.2.0, SVG Export Plug-In . SVG Version: 6.00 Build 0)  -->
<!DOCTYPE svg PUBLIC "-//W3C//DTD SVG 1.1//EN" "http://www.w3.org/Graphics/SVG/1.1/DTD/svg11.dtd">
<svg version="1.1" xmlns="http://www.w3.org/2000/svg" xmlns:xlink="http://www.w3.org/1999/xlink" x="0px" y="0px"
	 viewBox="0 0 64 64" enable-background="new 0 0 64 64" xml:space="preserve">
<g id="Layer_1">
	<path d="M32,0L0,32l32,32l32-32L32,0z M61.2,32l-14,14H18V17h-0.2L32,2.8L61.2,32z M2.8,32L16,18.8v26.3L2.8,32z M18.8,48h26.3
		L32,61.2L18.8,48z M46.5,25.2c-0.2,1-1,1.6-2,1.6l-5.1,8.3c0.1,0.3,0.1,0.7,0.1,1c-0.2,1.1-1.3,1.8-2.4,1.6c-0.6-0.1-1.1-0.5-1.4-1
		l-3.9-0.5c-0.5,0.4-1.1,0.6-1.8,0.5c-0.1,0-0.3-0.1-0.4-0.1l-4.2,2.9c0,0.2,0,0.4,0,0.7c-0.2,1.1-1.3,1.8-2.4,1.6s-1.8-1.3-1.6-2.4
		c0.2-1.1,1.3-1.8,2.4-1.6c0.1,0,0.3,0.1,0.4,0.1l4.2-2.9c0-0.2,0-0.4,0-0.7c0.2-1.1,1.3-1.8,2.4-1.6c0.8,0.2,1.4,0.8,1.6,1.5
		l3.3,0.5c0.4-0.7,1.2-1.1,2.1-0.9l4.9-8c-0.2-0.4-0.3-0.9-0.2-1.4c0.2-1.1,1.3-1.8,2.4-1.6S46.7,24.1,46.5,25.2z"/>
</g>
<g id="Guides">
	<g>
	</g>
</g>
</svg>
