<?xml version="1.0" encoding="utf-8"?>
<!-- Generator: Adobe Illustrator 19.2.0, SVG Export Plug-In . SVG Version: 6.00 Build 0)  -->
<!DOCTYPE svg PUBLIC "-//W3C//DTD SVG 1.1//EN" "http://www.w3.org/Graphics/SVG/1.1/DTD/svg11.dtd">
<svg version="1.1" xmlns="http://www.w3.org/2000/svg" xmlns:xlink="http://www.w3.org/1999/xlink" x="0px" y="0px"
	 viewBox="0 0 64 64" enable-background="new 0 0 64 64" xml:space="preserve">
<g id="Layer_1">
	<g>
		<path d="M40.9,36.4c0.1-0.1,0.2-0.3,0.3-0.4c0.1-0.2,0.2-0.3,0.3-0.5c0.1-0.1,0.2-0.3,0.2-0.4c0.1-0.2,0.2-0.3,0.3-0.5
			c0.1-0.1,0.1-0.3,0.2-0.4c0-0.1,0.1-0.1,0.1-0.2c3.2-0.1,5.8-2.8,5.8-6c0-3-2.2-5.4-5-5.9V19H21v3.1c-2.8,0.5-5,2.9-5,5.9
			c0,3.2,2.6,5.9,5.8,6c1.5,3.8,5,6.6,9.2,7V46h-5v2h12v-2h-5v-5c0,0,0,0,0.1,0c0.1,0,0.3,0,0.4-0.1c0.2,0,0.4-0.1,0.6-0.1
			c0.1,0,0.3-0.1,0.4-0.1c0.2,0,0.4-0.1,0.6-0.2c0.1,0,0.3-0.1,0.4-0.1c0.2-0.1,0.4-0.1,0.6-0.2c0.1-0.1,0.3-0.1,0.4-0.2
			c0.2-0.1,0.4-0.2,0.5-0.3c0.1-0.1,0.3-0.1,0.4-0.2c0.2-0.1,0.3-0.2,0.5-0.3c0.1-0.1,0.3-0.2,0.4-0.3c0.2-0.1,0.3-0.2,0.5-0.3
			c0.1-0.1,0.2-0.2,0.4-0.3c0.1-0.1,0.3-0.2,0.4-0.4c0.1-0.1,0.2-0.2,0.3-0.3c0.1-0.1,0.3-0.3,0.4-0.4c0.1-0.1,0.2-0.2,0.3-0.4
			C40.7,36.7,40.8,36.5,40.9,36.4z M46,28c0,1.9-1.4,3.5-3.2,3.9c0-0.2,0-0.3,0.1-0.5c0-0.1,0-0.2,0.1-0.4c0-0.4,0.1-0.7,0.1-1.1
			v-5.9C44.7,24.6,46,26.1,46,28z M18,28c0-1.9,1.3-3.4,3-3.9V30c0,0.7,0.1,1.3,0.2,1.9C19.4,31.5,18,29.9,18,28z M23,30v-9h18v9
			c0,5-4,9-9,9S23,35,23,30z"/>
		<path d="M32,0L0,32l32,32l32-32L32,0z M2.8,32L32,2.8L61.2,32L32,61.2L2.8,32z"/>
	</g>
</g>
<g id="Guides">
	<g>
	</g>
</g>
</svg>
