<?xml version="1.0" encoding="utf-8"?>
<!-- Generator: Adobe Illustrator 19.2.0, SVG Export Plug-In . SVG Version: 6.00 Build 0)  -->
<!DOCTYPE svg PUBLIC "-//W3C//DTD SVG 1.1//EN" "http://www.w3.org/Graphics/SVG/1.1/DTD/svg11.dtd">
<svg version="1.1" xmlns="http://www.w3.org/2000/svg" xmlns:xlink="http://www.w3.org/1999/xlink" x="0px" y="0px"
	 viewBox="0 0 64 64" enable-background="new 0 0 64 64" xml:space="preserve">
<g id="Layer_1">
	<path d="M32,0L0,32l32,32l32-32L32,0z M38.5,38.1L32.4,32l14.4-14.4l6.1,6.1L38.5,38.1z M46,33.4l6.9,6.9l-6.1,6.1l-6.9-6.9
		L46,33.4z M47.4,32l6.9-6.9l6.9,6.9l-6.9,6.9L47.4,32z M32,2.8l13.4,13.4L16.2,45.4L2.8,32L32,2.8z M17.6,46.8L31,33.4l14.4,14.4
		L32,61.2L17.6,46.8z"/>
</g>
<g id="Guides">
</g>
</svg>
