<?xml version="1.0" encoding="utf-8"?>
<!-- Generator: Adobe Illustrator 18.1.1, SVG Export Plug-In . SVG Version: 6.00 Build 0)  -->
<svg version="1.1" id="Layer_1" xmlns="http://www.w3.org/2000/svg" xmlns:xlink="http://www.w3.org/1999/xlink" x="0px" y="0px"
	 viewBox="0 0 64 19" enable-background="new 0 0 64 19" xml:space="preserve">
<path d="M6.7,8c0-0.1,0-0.3,0-0.4c0-1.6,1.1-2.9,3.1-2.9c1.9,0,3.1,1.3,3.1,2.8c0,1.2-0.7,2.1-1.7,2.8l-1.8,1.1
	c-0.5,0.3-1,0.7-1.1,1.3h4.7V14H6.6c0-1.5,0.6-2.6,2.2-3.6l1.5-1c0.9-0.5,1.2-1.2,1.2-1.9c0-0.8-0.6-1.6-1.7-1.6
	C8.6,5.9,8,6.7,8,7.7C8,7.9,8,8,8,8.1L6.7,8z M0,0v19h64V0H0z M1,1h17.5v17H1V1z M63,18H19.5V1H63V18z"/>
</svg>
