<?xml version="1.0" encoding="utf-8"?>
<!-- Generator: Adobe Illustrator 19.2.0, SVG Export Plug-In . SVG Version: 6.00 Build 0)  -->
<!DOCTYPE svg PUBLIC "-//W3C//DTD SVG 1.1//EN" "http://www.w3.org/Graphics/SVG/1.1/DTD/svg11.dtd">
<svg version="1.1" xmlns="http://www.w3.org/2000/svg" xmlns:xlink="http://www.w3.org/1999/xlink" x="0px" y="0px"
	 viewBox="0 0 64 64" enable-background="new 0 0 64 64" xml:space="preserve">
<g id="Layer_1">
	<path d="M32,2.8L61.2,32L32,61.2L2.8,32L32,2.8 M32,0L0,32l32,32l32-32L32,0L32,0z M48,31c-0.5-1.8-2.1-3-3.9-3c-0.3,0-0.7,0-1,0.1
		c-1.5,0.4-2.5,1.5-2.9,2.9h-7.6c-0.1-0.4-0.3-0.8-0.5-1.2l5.3-5.3c0.6,0.4,1.3,0.6,2,0.6c1.4,0,2.7-0.7,3.4-2
		c1.1-1.9,0.5-4.4-1.4-5.5c-0.6-0.4-1.3-0.6-2-0.6c-1.4,0-2.7,0.7-3.4,2c-0.8,1.3-0.7,2.8,0,4.1l-5.4,5.4c-0.6-0.3-1.2-0.5-1.9-0.5
		c-1,0-2,0.4-2.8,1.1c-0.5,0.5-0.9,1.2-1.1,1.9h-5.6c-0.2-0.7-0.5-1.3-1-1.8c-0.8-0.8-1.8-1.2-2.9-1.2c-1,0-2,0.4-2.8,1.1
		c-1.6,1.5-1.6,4.1-0.1,5.7c0.8,0.8,1.8,1.2,2.9,1.2c1,0,2-0.4,2.8-1.1c0.5-0.5,0.9-1.2,1.1-1.9h5.6c0.2,0.7,0.5,1.3,1,1.8
		c0.8,0.8,1.8,1.2,2.9,1.2c0.7,0,1.4-0.2,2.1-0.6l5.5,5.5c-1.1,1.9-0.5,4.4,1.4,5.5c0.6,0.4,1.3,0.6,2,0.6c1.4,0,2.7-0.7,3.4-2
		c1.1-1.9,0.5-4.4-1.4-5.5c-0.6-0.4-1.3-0.6-2-0.6c-0.7,0-1.4,0.2-2,0.6L32.3,34c0.2-0.3,0.3-0.6,0.4-1h7.6c0.5,1.8,2.1,3,3.9,3
		c0.3,0,0.7,0,1-0.1C47.3,35.3,48.6,33.1,48,31z M37.8,20c0.4-0.6,1-1,1.7-1c0.4,0,0.7,0.1,1,0.3c0.9,0.6,1.3,1.8,0.7,2.7
		c-0.4,0.6-1,1-1.7,1c-0.4,0-0.7-0.1-1-0.3C37.6,22.2,37.2,21,37.8,20z M16.9,33.4C16.5,33.8,16,34,15.5,34c-0.5,0-1-0.2-1.4-0.6
		c-0.8-0.8-0.8-2.1,0-2.8c0.4-0.4,0.9-0.6,1.4-0.6c0.5,0,1,0.2,1.4,0.6c0.4,0.4,0.6,0.9,0.6,1.4S17.3,33.1,16.9,33.4z M30.2,33.4
		c-0.4,0.4-0.9,0.6-1.4,0.6c-0.5,0-1-0.2-1.4-0.6c-0.8-0.8-0.8-2.1,0-2.8c0.4-0.4,0.9-0.6,1.4-0.6c0.5,0,1,0.2,1.4,0.6
		c0.4,0.4,0.6,0.9,0.6,1.4S30.6,33.1,30.2,33.4z M38,41.9c0.4-0.6,1-1,1.7-1c0.4,0,0.7,0.1,1,0.3c0.9,0.6,1.3,1.8,0.7,2.7
		c-0.4,0.6-1,1-1.7,1c-0.4,0-0.7-0.1-1-0.3C37.8,44.1,37.5,42.8,38,41.9z M45.9,33c-0.3,0.5-0.7,0.8-1.2,0.9c-0.2,0-0.3,0.1-0.5,0.1
		c-0.9,0-1.7-0.6-1.9-1.5c-0.3-1.1,0.4-2.2,1.4-2.4c0.2,0,0.3-0.1,0.5-0.1c0.9,0,1.7,0.6,1.9,1.5C46.2,32,46.1,32.6,45.9,33z"/>
</g>
<g id="Guides">
	<g>
	</g>
</g>
</svg>
