<?xml version="1.0" encoding="utf-8"?>
<!-- Generator: Adobe Illustrator 19.2.0, SVG Export Plug-In . SVG Version: 6.00 Build 0)  -->
<!DOCTYPE svg PUBLIC "-//W3C//DTD SVG 1.1//EN" "http://www.w3.org/Graphics/SVG/1.1/DTD/svg11.dtd">
<svg version="1.1" xmlns="http://www.w3.org/2000/svg" xmlns:xlink="http://www.w3.org/1999/xlink" x="0px" y="0px"
	 viewBox="0 0 64 64" enable-background="new 0 0 64 64" xml:space="preserve">
<g id="Layer_1">
	<path d="M32,0L6,26h0h0v0l-6,6l32,32l32-32L32,0z M16.8,18H36v8H8.8L16.8,18z M6.8,28H38l0,0h8v9l-18,0v0H8l0,0H7.8l-5-5L6.8,28z
		 M9.8,39L26,39v9h-7.2L9.8,39z M20.8,50H28V39l20,0V26H38V16H18.8L32,2.8L61.2,32L32,61.2L20.8,50z"/>
</g>
<g id="Guides">
</g>
</svg>
