<?xml version="1.0" encoding="utf-8"?>
<!-- Generator: Adobe Illustrator 18.1.1, SVG Export Plug-In . SVG Version: 6.00 Build 0)  -->
<svg version="1.1" id="Layer_1" xmlns="http://www.w3.org/2000/svg" xmlns:xlink="http://www.w3.org/1999/xlink" x="0px" y="0px"
	 viewBox="0 0 64 64" enable-background="new 0 0 64 64" xml:space="preserve">
<path d="M39.1,38.9c-0.4-0.1-0.7-0.1-1.1-0.1c-0.3,0-0.6,0-0.9,0.1l-2.3-4c1.6-1.5,1.6-4.1,0-5.6c0,0,0,0-0.1,0l2.4-4.2
	c0.2,0,0.5,0.1,0.8,0.1c0.3,0,0.7,0,1-0.1c2.1-0.6,3.4-2.7,2.9-4.9c-0.5-1.8-2.1-3-3.9-3c-0.3,0-0.7,0-1,0.1
	c-2.1,0.6-3.4,2.7-2.9,4.9c0.2,0.8,0.7,1.5,1.3,2.1l-2.4,4.1C32.7,28.1,32.4,28,32,28c-1,0-2,0.4-2.8,1.1c-0.5,0.5-0.9,1.2-1.1,1.9
	h-4.3c-0.2-0.7-0.5-1.3-1-1.8C22.1,28.4,21,28,20,28c-1,0-2,0.4-2.8,1.1c-1.6,1.5-1.6,4.1-0.1,5.7C17.9,35.6,19,36,20,36
	c1,0,2-0.4,2.8-1.1c0.5-0.5,0.9-1.2,1.1-1.9h4.3c0.2,0.7,0.5,1.3,1,1.8C29.9,35.6,31,36,32,36c0.4,0,0.7-0.1,1.1-0.2l2.3,3.9
	c-0.6,0.5-1,1.1-1.2,1.9c-0.6,2.1,0.7,4.3,2.8,4.9c0.4,0.1,0.7,0.1,1.1,0.1c1.8,0,3.4-1.2,3.9-2.9C42.4,41.7,41.2,39.5,39.1,38.9z
	 M37.5,19.1c0.2,0,0.3-0.1,0.5-0.1c0.9,0,1.7,0.6,1.9,1.5c0.3,1.1-0.4,2.2-1.4,2.4C38.3,23,38.2,23,38,23c-0.9,0-1.7-0.6-1.9-1.5
	C35.8,20.4,36.4,19.3,37.5,19.1z M21.4,33.4C21,33.8,20.5,34,20,34c-0.5,0-1-0.2-1.4-0.6C18.2,33,18,32.5,18,32c0-0.5,0.2-1,0.6-1.4
	C19,30.2,19.5,30,20,30c0.5,0,1,0.2,1.4,0.6C22.2,31.4,22.2,32.7,21.4,33.4z M30.6,33.4C30.2,33,30,32.5,30,32c0-0.5,0.2-1,0.6-1.4
	C31,30.2,31.5,30,32,30c0.5,0,1,0.2,1.4,0.6C33.8,31,34,31.5,34,32c0,0.5-0.2,1-0.6,1.4C33,33.8,32.5,34,32,34
	C31.5,34,30.9,33.8,30.6,33.4z M39.9,43.3c-0.2,0.9-1,1.5-1.9,1.5c-0.2,0-0.4,0-0.5-0.1c-1.1-0.3-1.7-1.4-1.4-2.5
	c0.2-0.9,1-1.5,1.9-1.5c0.2,0,0.4,0,0.5,0.1c0.5,0.1,0.9,0.5,1.2,0.9C40,42.2,40.1,42.8,39.9,43.3z M32,0L0,32l32,32l32-32L32,0z
	 M2.8,32L32,2.8L61.2,32L32,61.2L2.8,32z"/>
</svg>
