<?xml version="1.0" encoding="utf-8"?>
<!-- Generator: Adobe Illustrator 19.2.0, SVG Export Plug-In . SVG Version: 6.00 Build 0)  -->
<!DOCTYPE svg PUBLIC "-//W3C//DTD SVG 1.1//EN" "http://www.w3.org/Graphics/SVG/1.1/DTD/svg11.dtd">
<svg version="1.1" xmlns="http://www.w3.org/2000/svg" xmlns:xlink="http://www.w3.org/1999/xlink" x="0px" y="0px"
	 viewBox="0 0 64 64" enable-background="new 0 0 64 64" xml:space="preserve">
<g id="Layer_1">
	<path d="M32.5,39.2c-0.2,1.1-1.3,1.8-2.4,1.6c-1.1-0.2-1.8-1.3-1.6-2.4c0.2-1.1,1.3-1.8,2.4-1.6C31.9,37,32.7,38.1,32.5,39.2z
		 M43.3,26.3c-1.1-0.2-2.1,0.5-2.4,1.6c-0.2,1.1,0.5,2.1,1.6,2.4s2.1-0.5,2.4-1.6C45.1,27.6,44.4,26.5,43.3,26.3z M37.8,27.3
		c-1.1-0.2-2.1,0.5-2.3,1.6c-0.2,1.1,0.5,2.1,1.6,2.3c1.1,0.2,2.1-0.5,2.3-1.6C39.5,28.5,38.8,27.5,37.8,27.3z M31.9,30.5
		c-1.1-0.2-2.1,0.5-2.3,1.6c-0.2,1.1,0.5,2.1,1.6,2.3c1.1,0.2,2.1-0.5,2.3-1.6C33.7,31.7,33,30.7,31.9,30.5z M36.6,33.1
		c-1.1-0.2-2.1,0.5-2.4,1.6c-0.2,1.1,0.5,2.1,1.6,2.4c1.1,0.2,2.1-0.5,2.4-1.6C38.4,34.4,37.7,33.3,36.6,33.1z M39.3,21.6
		c-1.1-0.2-2.1,0.5-2.3,1.6c-0.2,1.1,0.5,2.1,1.6,2.3s2.1-0.5,2.3-1.6C41.1,22.9,40.4,21.9,39.3,21.6z M45.2,20.8
		c-1.1-0.2-2.1,0.5-2.3,1.6s0.5,2.1,1.6,2.3c1.1,0.2,2.1-0.5,2.3-1.6C47,22,46.3,21,45.2,20.8z M24.6,37.2c-1.1-0.2-2.1,0.5-2.4,1.6
		c-0.2,1.1,0.5,2.1,1.6,2.4c1.1,0.2,2.1-0.5,2.4-1.6S25.6,37.4,24.6,37.2z M26.2,31.5C25.1,31.3,24,32,23.8,33
		c-0.2,1.1,0.5,2.1,1.6,2.3c1.1,0.2,2.1-0.5,2.3-1.6C27.9,32.7,27.2,31.7,26.2,31.5z M32.8,25.3c-1.1-0.2-2.1,0.5-2.4,1.6
		s0.5,2.1,1.6,2.4c1.1,0.2,2.1-0.5,2.4-1.6C34.6,26.5,33.9,25.5,32.8,25.3z M64,32L32,64L0,32L32,0L64,32z M32,2.8L17.8,17H18v29
		h29.2l14-14L32,2.8z M16,45.2V18.8L2.8,32L16,45.2z M32,61.2L45.2,48H18.8L32,61.2z"/>
</g>
<g id="Guides">
	<g>
	</g>
</g>
</svg>
