<?xml version="1.0" encoding="utf-8"?>
<!-- Generator: Adobe Illustrator 19.2.0, SVG Export Plug-In . SVG Version: 6.00 Build 0)  -->
<!DOCTYPE svg PUBLIC "-//W3C//DTD SVG 1.1//EN" "http://www.w3.org/Graphics/SVG/1.1/DTD/svg11.dtd">
<svg version="1.1" xmlns="http://www.w3.org/2000/svg" xmlns:xlink="http://www.w3.org/1999/xlink" x="0px" y="0px"
	 viewBox="0 0 64 64" enable-background="new 0 0 64 64" xml:space="preserve">
<g id="Layer_1">
	<path d="M32,16c-8.8,0-16,7.2-16,16c0,8.8,7.2,16,16,16c8.8,0,16-7.2,16-16C48,23.2,40.8,16,32,16z M18.1,33h6.4
		c0,1.7,0.2,3.4,0.5,5h-5.5C18.6,36.5,18.2,34.8,18.1,33z M33,24v-5.8c1.5,0.7,2.8,2.8,3.6,5.8H33z M37.1,26c0.3,1.5,0.5,3.2,0.5,5
		H33v-5H37.1z M31,18.2V24h-3.6C28.2,21,29.5,18.9,31,18.2z M31,26v5h-4.6c0.1-1.8,0.2-3.5,0.5-5H31z M24.4,31h-6.4
		c0.1-1.8,0.6-3.5,1.3-5h5.5C24.6,27.6,24.5,29.3,24.4,31z M26.4,33H31v5h-4.1C26.7,36.5,26.5,34.8,26.4,33z M31,40v5.8
		c-1.5-0.7-2.8-2.8-3.6-5.8H31z M33,45.8V40h3.6C35.8,43,34.5,45.1,33,45.8z M33,38v-5h4.6c-0.1,1.8-0.2,3.5-0.5,5H33z M39.6,33h6.4
		c-0.1,1.8-0.6,3.5-1.3,5h-5.5C39.4,36.4,39.5,34.7,39.6,33z M39.6,31c0-1.7-0.2-3.4-0.5-5h5.5c0.7,1.5,1.2,3.2,1.3,5H39.6z
		 M43.5,24h-4.8c-0.5-2.1-1.3-3.9-2.2-5.3C39.3,19.7,41.8,21.6,43.5,24z M27.6,18.7c-1,1.4-1.7,3.2-2.2,5.3h-4.8
		C22.2,21.6,24.7,19.7,27.6,18.7z M20.5,40h4.8c0.5,2.1,1.3,3.9,2.2,5.3C24.7,44.3,22.2,42.4,20.5,40z M36.4,45.3
		c1-1.4,1.7-3.2,2.2-5.3h4.8C41.8,42.4,39.3,44.3,36.4,45.3z M32,0L0,32l32,32l32-32L32,0z M2.8,32L32,2.8L61.2,32L32,61.2L2.8,32z"
		/>
</g>
<g id="Guides">
	<g>
	</g>
</g>
</svg>
